<svg viewBox="0 0 102 96" fill="none" xmlns="http://www.w3.org/2000/svg"><g clip-path="url(#clip0_690_15823)"><path d="M52.723 44.098h-1.89V33.932a3.365 3.365 0 0 1 2.56.85c.912.91.911 2.41.911 3.583v3.194c0 1.89.978 3.845 2.806 3.845a2.678 2.678 0 0 0 2.211-1.024c.912-1.106 1.024-3.128 1.024-3.911 0-.783-.456-.978-.783-.978-.067 0-.65 0-.65.911v.85c0 2.217-.65 2.995-1.24 2.995-.388 0-.583-.973-.583-2.8v-3.195a4.433 4.433 0 0 0-1.5-3.645 5.589 5.589 0 0 0-2.15-1.305c3.128-1.367 3.778-3.711 3.778-5.539a7.1 7.1 0 0 0-1.5-4.172c-1.433-1.628-3.45-1.889-5.277-1.889h-4.096v1.024h1.567v21.372h-1.628v1.106h6.45l-.01-1.106zm-1.956-21.305c.783 0 1.823.127 2.411.977.589.85.912 3.072.912 3.973.066 1.305-.195 3-.845 3.91-.65.912-1.305 1.107-2.478 1.107v-9.967zm-5.8 22.411H34.54v-1.106h1.828V22.793h-1.828l.067-1.024h10.428v8.19H43.84v-.389c0-4.561-1.566-6.91-3.194-6.91h-1.24v9.122a.85.85 0 0 0 .59-.195c.977-.845 1.233-3.517 1.233-4.366v-.39h1.178v11.14H41.23v-.39c0-.844-.256-3.516-1.233-4.3h-.067a1.23 1.23 0 0 0-.589-.26v11.077h1.24c1.566 0 3.193-2.344 3.193-6.844v-.389h1.173l.02 8.34zm-36.033 0h12.51v-1.106h-2.021c-.062-.91-.195-3.194-.195-5.016v-11.6l4.095 17.722h1.106l4.096-18.429V44.11h-1.89v1.105h6.712V44.11h-1.89l-.066-21.373h1.828v-1.024h-4.695l-3.777 16.812-3.778-16.812h-5.017v1.024h2.083v16.356c0 1.433-.194 4.039-.26 5.017h-3.779L9.563 19.086H7.495L4.106 37.464c-.512 2.734-1.106 5.667-1.3 6.655H.395v1.106h6.383v-1.106H4.372c.195-1.434.85-5.867 1.024-7.679h4.04l1.238 7.679H8.913l.02 1.085zM5.61 35.232l1.884-10.684 1.7 10.684H5.61zm56.101-12.44h-1.561V21.77h5.928v1.024h-1.562v21.305h1.562v1.106h-5.667v-1.106h1.3V22.793zm34.733-1.023l-.066 1.024h1.628c0 .91.066 3.322.066 5.083v8.989l-4.039-15.117H88.89v1.024h2.084v16.356c0 1.172-.195 3.972-.261 5.016h-3.128l-3.906-22.416h-1.955L78.65 38.21a138.134 138.134 0 0 1-1.11 5.867h-1.823v1.106h5.493v-1.106h-2.15c.194-1.367.716-5.15.911-6.778h3.455l1.106 6.778h-1.536v1.106h11.078v-1.106h-1.633c-.061-1.024-.194-3.845-.194-5.017V25.66l5.216 19.545h1.95V27.876c0-1.5.2-4.096.262-5.084h2.15V21.77h-5.38zM80.151 36.235l1.633-9.122 1.433 9.122h-3.066zm-13.878-2.344c0-5.217 2.15-12.511 5.734-12.511a2.56 2.56 0 0 1 1.694.65c.18.173.409.288.655.327.512 0 .512-.512.512-.588v-.39h.978v8.667H74.74v-.394c0-2.56-.783-7.167-2.739-7.167-2.083 0-2.344 6.45-2.344 11.34 0 5.405.394 7.678.783 8.666.584 1.561.911 1.561 1.628 1.561h.067c1.694 0 2.605-2.472 2.605-7.033 0-.717.195-1.024.65-1.024.784 0 .784.783.784 1.024 0 3.071-.845 8.272-4.04 8.272-3.839-.02-5.86-5.882-5.86-11.42v.02zm-2.047 16.821h10.1v8.191h-1.173v-.39c0-4.56-1.561-6.905-3.194-6.905H68.72v9.117a.87.87 0 0 0 .584-.194c.977-.85 1.239-3.522 1.239-4.367v-.394h1.172v11.144h-1.172v-.389c0-.85-.262-3.522-1.24-4.3h-.066a1.157 1.157 0 0 0-.584-.26v11.077h1.296c1.566 0 3.194-2.35 3.194-6.844v-.39h1.172v8.406h-9.962v-1.1h1.434V51.73H64.22l.005-1.019zM25.923 66.848a7.525 7.525 0 0 0-1.694-4.822 6.527 6.527 0 0 0-3.261-2.278c2.088-.85 4.238-2.8 4.238-5.667a5.698 5.698 0 0 0-2.56-5.022c-1.627-1.106-3.644-1.3-5.016-1.3h-5.017v1.023h2.15v24.24h-2.15v1.116h4.889c5.35 0 8.421-2.596 8.421-7.29zm-7.95-17.984c1.367.067 1.955.261 2.672.85 1.106 1.024 1.106 3.65 1.106 4.756 0 2.344-1.239 4.039-2.017 4.366a6.195 6.195 0 0 1-1.761.39V48.863zm3.128 22.94c-.85 1.171-2.15 1.238-3.128 1.238V60.398a3.455 3.455 0 0 1 2.933 1.172c.65.783 1.239 2.867 1.239 5.672a8.642 8.642 0 0 1-1.06 4.561h.016zM45.34 51.73h1.628c0 .916.066 3.322.066 5.083v8.995l-4.039-15.117h-5.165v1.024h2.089V68.07c0 1.173-.2 3.978-.261 5.017h-3.497L32.19 50.677h-1.956l-3 16.483a133.6 133.6 0 0 1-1.105 5.867h-2.15v1.11h5.8v-1.105h-2.15c.194-1.372.716-5.15.91-6.778h3.456l1.096 6.788h-1.562v1.096h11.4v-1.106h-1.648c-.066-1.024-.194-3.845-.194-5.022V54.598l5.216 19.54h1.956V56.814c0-1.5.194-4.095.26-5.083h1.562v-1.024h-4.755l.015 1.024zM28.724 65.153l1.628-9.122 1.433 9.122h-3.06zm32.906 7.89h1.628v1.095h-5.554v-1.106h.983l-2.995-10.238-.512.977v9.343h1.305v1.11H50.67v-1.11h1.561V51.73h-1.694v-1.024h6.45v1.024h-1.822v9.578l2.56-5.078c.26-.512 1.371-3.261 1.893-4.5h-1.392v-1.024h4.955v1.024h-2.15c-.394.85-1.827 3.844-2.411 5.15l-1.024 2.15 4.034 14.011zm27.106-4.5c-.062 0-.65 0-.65.91v.85c0 1.823-.456 2.934-1.239 2.934-.39 0-.584-.912-.584-2.806v-3.189a4.439 4.439 0 0 0-1.5-3.65 5.632 5.632 0 0 0-2.15-1.305c3.128-1.367 3.778-3.712 3.778-5.54a7.08 7.08 0 0 0-1.5-4.166c-1.433-1.628-3.45-1.89-5.277-1.89h-4.096v1.025h1.597v21.398h-1.632v1.11h6.45v-1.11h-1.89v-10.11a3.37 3.37 0 0 1 2.56.85c.911.91.911 2.41.911 3.583v3.194c0 1.889.978 3.844 2.8 3.844a2.774 2.774 0 0 0 2.217-1.023c.911-1.106 1.024-3.128 1.024-3.911-.118-.738-.44-.999-.834-.999h.015zm-6.271-7.818c-.717.978-1.3 1.106-2.472 1.106v-9.967c.778 0 1.822.128 2.41.978.59.85.912 3.071.912 3.972 0 1.306-.195 2.99-.85 3.911z" fill="#000"/></g><defs><clipPath id="clip0_690_15823"><path fill="#fff" transform="translate(.4 19)" d="M0 0H101.5V58H0z"/></clipPath></defs></svg>