<svg fill="none" viewBox="0 0 84 96" xmlns="http://www.w3.org/2000/svg"><clipPath id="a"><path d="M0 0h83.064v64H0z" transform="translate(0 12.5)"/></clipPath><g clip-path="url(#a)"><path d="M41.886 19.472c-1.28-3.064-4.398-6.387-10.267-5.924a9.546 9.546 0 0 0-8.647 11.711 10.458 10.458 0 0 0-12.432.844c-5.706 5.46-2.656 12.868.476 14.639A9.763 9.763 0 0 0 .912 48.503c-1.293 7.258 4.494 11.48 10.104 11.48h62.312a9.56 9.56 0 0 0 9.709-10.458c-.64-6.632-6.972-9.178-10.431-8.634 2.887-1.538 6.74-8.783.885-14.474-4.657-4.249-10.58-2.697-12.664-.858a9.804 9.804 0 0 0-9.777-12.106 9.654 9.654 0 0 0-9.164 6.019z" fill="#fff"/><path d="M11.575 27.26a8.034 8.034 0 0 0 1.443 13.1L36.67 55.912 25.205 30.72c-2.41-5.937-8.987-7.231-13.63-3.46z" fill="#f37021"/><path d="M31.945 15.02c-3.853.067-9.627 4.452-7.053 11.165l11.86 26.799 4.167-28.188c.967-7.012-4.561-10.253-8.987-9.777h.014z" fill="#cc004c"/><path d="M42.771 23.707h2.247s1.198 0 1.362.544c-.886.681-3.282.777-2.969 4.467l3.772 24.265 11.792-26.88c2.41-5.991-2.655-11.016-7.149-11.166l-.626-.027c-4.03 0-8.647 2.805-8.429 8.797z" fill="#6460aa"/><path d="M58.499 30.951L47.346 55.83 71 40.197c5.447-3.704 4.576-9.627 1.525-12.555a8.66 8.66 0 0 0-6.127-2.45c-2.928 0-6.074 1.497-7.898 5.76z" fill="#0089d0"/><path d="M68.358 43.737l-22.224 14.87h27.37c5.597 0 9.206-5.542 7.599-10.635a8.51 8.51 0 0 0-7.939-5.719c-1.552 0-3.186.463-4.806 1.484z" fill="#0db14b"/><path d="M10.934 58.607h26.949L15.66 43.737c-5.134-3.159-10.894-1.307-12.991 3.936-1.77 5.991 2.655 10.934 8.265 10.934z" fill="#fcb711"/><path d="M.817 69.365c0 2.532 2.152 7.135 10.403 7.135 7.612 0 10.009-3.35 10.009-4.875h-5.883s-.272 2.03-3.608 2.03c-3.323 0-4.221-2.67-4.221-4.195 0-1.539.898-4.044 4.22-4.044 3.323 0 3.61 1.77 3.61 1.77h5.882c0-1.552-1.77-4.848-10.009-4.848-8.25 0-10.403 4.902-10.403 7.027zm61.74 0c0 2.532 2.178 7.135 10.417 7.135 7.598 0 10.008-3.35 10.008-4.875H77.1s-.286 2.03-3.609 2.03-4.221-2.67-4.221-4.195c0-1.539.898-4.044 4.221-4.044s3.609 1.77 3.609 1.77h5.882c0-1.552-1.77-4.848-10.008-4.848-8.252 0-10.417 4.902-10.417 7.027zM37.31 62.584v8.565l-6.836-8.58h-7.707v13.59h5.283v-8.673l6.727 8.674h7.83V62.584zm16.94 10.321v.027h-4.4V70.44h4.4c.952 0 1.701.545 1.701 1.24 0 .68-.762 1.225-1.702 1.225zm-4.358-7.68h4.235c.721 0 1.307.45 1.307 1.008s-.586 1.007-1.307 1.007h-4.235zm8.687 3.718c.954 0 2.969-1.076 2.969-3.146 0-2.955-5.733-3.213-6.618-3.213H44.364V76.16h10.567c5.093 0 7.135-1.54 7.135-4.113s-3.486-3.104-3.486-3.104z" fill="#292526"/></g></svg>