<svg viewBox="0 0 140 96" fill="none" xmlns="http://www.w3.org/2000/svg"><g clip-path="url(#clip0_1194_15993)"><path fill-rule="evenodd" clip-rule="evenodd" d="M11.75 40.593h.242v-3.09H0v.206c1.383 1.123 1.572 1.452 1.572 2.679V55.35c0 1.227-.19 1.554-1.572 2.678v.208h6.22v-.208c-1.4-1.052-1.642-1.451-1.642-2.626V47.99h1.348c1.763 0 2.074.121 3.576 2.039h.208v-4.871h-.208C8 47.072 7.69 47.194 5.926 47.194H4.578v-8.934h2.057c.83 0 1.537.276 5.116 2.332zm4.732 8.794h-4.161l1.971-6.026c.091.216.183.456.282.74l1.908 5.287zm3.276 1.764l-3.61-9.919h-3.267v.191c.46.427.755.754.989 1.113l-2.7 8.2c-.482 1.468-.794 1.935-2.022 3.075v.209h3.786v-.209c-1.037-.639-1.382-1.052-1.382-1.658 0-.293.086-.69.311-1.364l.237-.727h4.625l.424 1.174c.26.745.311 1.056.311 1.332 0 .43-.294.794-1.088 1.243v.209h5.287v-.209c-1.245-1.02-1.434-1.363-1.9-2.66h-.002zM27.7 40.593h.243v-2.988c-1.158-.208-2.454-.38-3.646-.38-3.475 0-5.184 2.316-5.184 4.786 0 2.85 1.85 4.56 4.216 6.532 2.556 2.142 4.06 3.438 4.06 5.907 0 2.04-1.347 3.284-3.143 3.284-1.573 0-2.817-.623-6.12-3.215h-.29l1.207 3.37c1.452.41 2.953.619 4.46.623 3.957 0 6.255-2.401 6.255-5.736 0-3.076-1.798-4.648-4.356-6.722-2.35-1.902-3.957-3.438-3.957-5.65 0-1.434.951-2.419 2.42-2.419 1.02 0 1.728.397 3.835 2.608zm15.224 0h.24V37.5H29.032v3.093h.24c3.336-2.107 4.01-2.385 4.787-2.385h.537V55.4c0 1.175-.243 1.573-1.643 2.626v.208h6.29v-.208c-1.4-1.053-1.643-1.451-1.643-2.626V38.21h.537c.776 0 1.451.278 4.787 2.385zm18.024-.551h.245V37.38c-1.4-.208-3.198-.38-4.839-.38-7.344 0-11.699 4.096-11.699 10.885 0 6.67 4.164 10.8 11.421 10.8 1.883 0 3.577-.276 4.925-.64l.534-2.953h-.24c-2.712 2.297-3.922 2.833-5.892 2.833-5.426 0-7.24-4.096-7.24-10.16 0-6.17 1.814-9.936 6.946-9.936 1.64 0 2.8.38 5.84 2.213zm-.7 7.723c0 3.422-.292 5.684-2.764 5.684-2.488 0-2.765-2.262-2.765-5.685 0-3.421.277-5.685 2.765-5.685s2.764 2.264 2.764 5.686zm2.938 0c0-3.613-2.142-6.325-5.702-6.325-3.559 0-5.701 2.732-5.701 6.325 0 3.576 2.142 6.322 5.7 6.322 3.561 0 5.703-2.746 5.703-6.322zm12.71 10.434l6.15.036v-.208c-1.382-1.123-1.57-1.45-1.57-2.677V40.387c0-1.227.188-1.555 1.57-2.662v-.207l-4.353-.035L72.858 52.8l-4.945-15.298h-4.405v.207c.83.722 1.34 1.192 1.709 1.675V53.88c0 1.676-.207 2.35-1.763 4.148v.208h4.926v-.208c-2.075-1.71-2.367-2.401-2.367-4.148V40.982c.034.099.068.192.101.302l5.55 17.124h.24l5.563-17.624v14.548c0 1.227-.19 1.555-1.572 2.661v.206zm17.806-14.355c0 3.886-.916 5.51-3.888 5.51h-1.711V38.261h1.209c3.283 0 4.39 1.4 4.39 5.583zm3.212-.14c0-4.665-3.265-6.203-7.688-6.203h-5.701v.207c1.38 1.124 1.57 1.452 1.57 2.679V55.35c0 1.226-.19 1.554-1.57 2.678v.208h6.22v-.208c-1.401-1.053-1.642-1.452-1.642-2.626v-5.288h1.623c3.906 0 7.188-1.66 7.188-6.41zm7.59 6.964h-5.869l2.891-10.45c.061.177.121.368.183.583l2.794 9.867h.001zm35.01-12.96v-.206h-4.682v.207c1.262 1.123 1.641 1.659 1.641 2.471 0 .432-.103.777-.45 1.573l-2.688 6.285-3.514-7.79c-.277-.603-.365-.933-.365-1.242 0-.553.313-.865 1.158-1.297v-.208h-10.366v.207c2.316 1.712 2.628 2.384 2.628 4.269v11.925l-8.657-16.401h-4.304v.207c.898.77 1.419 1.25 1.867 1.846V53.93c0 1.563-.174 2.243-1.413 4.097-.955-1.197-1.163-1.771-1.646-3.473l-4.889-17.053h-4.198v.207c.66.58 1.076.981 1.388 1.451l-4.066 14.636c-.588 2.126-1.056 2.764-2.61 4.233v.208h5.012v-.208c-1.435-1.089-1.883-1.642-1.883-2.592 0-.38.086-.917.294-1.64l.65-2.35h6.3l.876 3.092c.276.968.38 1.383.38 1.762 0 .536-.222.899-1.278 1.728v.208h10.505v-.208c-2.317-1.71-2.626-2.384-2.626-4.096V40.843c.016.035.033.061.05.097l9.141 17.295h1.902V41.977c0-1.72.171-2.405 1.366-4.258.778.942 1.272 1.733 1.915 3.17l3.732 8.246v6.267c0 1.174-.243 1.573-1.642 2.626v.208h6.291v-.208c-1.401-1.053-1.641-1.452-1.641-2.626v-6.36l3.108-7.238c.659-1.538 1.159-2.263 2.714-4.095v-.001z" fill="#000"/></g><defs><clipPath id="clip0_1194_15993"><path fill="#fff" transform="translate(0 37)" d="M0 0H140V21.928H0z"/></clipPath></defs></svg>