<svg viewBox="0 0 64 64" xmlns="http://www.w3.org/2000/svg"><path d="M54.82 43c3.49-8.23 10-14.24 6.21-21.57-4.08-8-14.31-4.71-21-6.25-9.5-2.16-9.41-6.35-19.2-6.35-6.49 0-19 5.74-19 18.64s18.41 27.68 33.53 27.68S53 47.3 54.82 43z" fill="#eff6ff"/><g fill="none"><path d="M0 0h64v64H0z"/><path d="M21.21 28.94V11.52a.94.94 0 0 1 .29-.69 1 1 0 0 1 .68-.28h19.47l7.78 7.78v28.22a.94.94 0 0 1-.07.37.94.94 0 0 1-.53.53.94.94 0 0 1-.37.07H32.17" stroke="#172f4f" stroke-linecap="round" stroke-linejoin="round"/><path d="M49.43 18.33l-7.78-7.78v6.81a.94.94 0 0 0 .07.37.94.94 0 0 0 .53.53 1 1 0 0 0 .37.07zM12.94 39.74a11.2 11.2 0 1 0 3.28-7.91 11.18 11.18 0 0 0-3.28 7.91z" stroke="#172f4f" stroke-linecap="round" stroke-linejoin="round"/><path d="M15.37 39.74a8.77 8.77 0 0 0 2.57 6.19 8.64 8.64 0 0 0 2.84 1.9 8.76 8.76 0 1 0 0-16.18 8.64 8.64 0 0 0-2.84 1.9 8.77 8.77 0 0 0-2.57 6.19z"/><path d="M15.37 39.74a8.77 8.77 0 0 0 2.57 6.19 8.64 8.64 0 0 0 2.84 1.9 8.76 8.76 0 1 0 0-16.18 8.64 8.64 0 0 0-2.84 1.9 8.77 8.77 0 0 0-2.57 6.19zm11.07-24.33h10.7m-10.7 3.41h10.7m-10.7 3.4h18m-18 3.41h18M34.22 29h10.22m-7.3 3.44h7.3m-5.84 3.41h5.84m-5.35 3.4h5.35m-5.84 3.41h5.84" stroke="#172f4f" stroke-linecap="round" stroke-linejoin="round"/><path d="M22.54 44.12A1.24 1.24 0 0 1 22 44a1.19 1.19 0 0 1-.42-.28L19 41.15a1.34 1.34 0 0 1-.36-.91 1.3 1.3 0 0 1 .38-.91A1.32 1.32 0 0 1 20 39a1.29 1.29 0 0 1 .91.37L22.54 41l4.26-4.26a1.1 1.1 0 0 1 .42-.29 1.25 1.25 0 0 1 .5-.11 1.21 1.21 0 0 1 .5.1 1.24 1.24 0 0 1 .71.71 1.18 1.18 0 0 1 .1.5 1.25 1.25 0 0 1-.11.5 1.18 1.18 0 0 1-.29.42l-5.18 5.18A1.19 1.19 0 0 1 23 44a1.16 1.16 0 0 1-.46.12z" stroke="#172f4f"/></g></svg>