<svg xmlns="http://www.w3.org/2000/svg" viewBox="0 0 64 64"><path d="M54.82 43c3.49-8.23 10-14.24 6.21-21.57-4.08-8-14.31-4.71-21-6.25-9.5-2.16-9.41-6.35-19.2-6.35-6.49 0-19 5.74-19 18.64s18.41 27.68 33.53 27.68S53 47.3 54.82 43z" fill="#eff6ff"/><path fill="none" d="M0 0H64V64H0z"/><path d="M11.88 29.55a20.13 20.13 0 1 0 1.53-7.7 20.15 20.15 0 0 0-1.53 7.7z" fill="none"/><path d="M50.24 21.05a20.14 20.14 0 0 0-12.45-10.77h-3a2.77 2.77 0 0 0-1.79.6 2.83 2.83 0 0 0-1 1.61 2.78 2.78 0 0 0 .06 1.15 2.61 2.61 0 0 0 1.44 1.71 2.62 2.62 0 0 0 1.13.25 2.2 2.2 0 0 1 .94.22 2.25 2.25 0 0 1 .75.62 2.07 2.07 0 0 1 .4.88 2.27 2.27 0 0 1 0 1 2.19 2.19 0 0 1-2.15 1.58H27a5.51 5.51 0 0 0-5.62 5 5.33 5.33 0 0 0 3.21 5.18 5.27 5.27 0 0 0 2.11.43h3.1a1.41 1.41 0 0 1 1 .41 1.43 1.43 0 0 1 .41 1v1.13a1 1 0 0 0 .08.46 1.2 1.2 0 0 0 1.1.74 1.2 1.2 0 0 1 .86.35 1.16 1.16 0 0 1 .26.39 1.23 1.23 0 0 1 .1.46v1.46a1 1 0 0 1-.18.64 3.21 3.21 0 0 0-.72 2.06 3.14 3.14 0 0 0 .76 2 3.43 3.43 0 0 0 1.17.85 3.34 3.34 0 0 0 1.43.27h1.27c3.46 0 4.53-3.19 4.53-4.79v-5.29a2.82 2.82 0 0 1 .41-1.5 2.86 2.86 0 0 1 1.14-1.07 4.24 4.24 0 0 0 1.5-1.56 4.3 4.3 0 0 0 .54-2.08.19.19 0 0 0-.05-.13.21.21 0 0 0-.13 0h-2.1a1.07 1.07 0 0 1-.75-.32 1 1 0 0 1-.31-.75v-1.38a1.06 1.06 0 0 1 1.06-1.06h4.56a2.66 2.66 0 0 0 1.52-.48 2.72 2.72 0 0 0 .98-1.27z" fill="none"/><path d="M11.88 29.55a20.13 20.13 0 1 0 1.53-7.7 20.15 20.15 0 0 0-1.53 7.7z" fill="none" stroke="#172f4f" stroke-linecap="round" stroke-linejoin="round"/><path d="M50.24 21.05a20.14 20.14 0 0 0-12.45-10.77h-3a2.77 2.77 0 0 0-1.79.6 2.83 2.83 0 0 0-1 1.61 2.78 2.78 0 0 0 .06 1.15 2.61 2.61 0 0 0 1.44 1.71 2.62 2.62 0 0 0 1.13.25 2.2 2.2 0 0 1 .94.22 2.25 2.25 0 0 1 .75.62 2.07 2.07 0 0 1 .4.88 2.27 2.27 0 0 1 0 1 2.19 2.19 0 0 1-2.15 1.58H27a5.51 5.51 0 0 0-5.62 5 5.33 5.33 0 0 0 3.21 5.18 5.27 5.27 0 0 0 2.11.43h3.1a1.41 1.41 0 0 1 1 .41 1.43 1.43 0 0 1 .41 1v1.13a1 1 0 0 0 .08.46 1.2 1.2 0 0 0 1.1.74 1.2 1.2 0 0 1 .86.35 1.16 1.16 0 0 1 .26.39 1.23 1.23 0 0 1 .1.46v1.46a1 1 0 0 1-.18.64 3.21 3.21 0 0 0-.72 2.06 3.14 3.14 0 0 0 .76 2 3.43 3.43 0 0 0 1.17.85 3.34 3.34 0 0 0 1.43.27h1.27c3.46 0 4.53-3.19 4.53-4.79v-5.29a2.82 2.82 0 0 1 .41-1.5 2.86 2.86 0 0 1 1.14-1.07 4.24 4.24 0 0 0 1.5-1.56 4.3 4.3 0 0 0 .54-2.08.19.19 0 0 0-.05-.13.21.21 0 0 0-.13 0h-2.1a1.07 1.07 0 0 1-.75-.32 1 1 0 0 1-.31-.75v-1.38a1.06 1.06 0 0 1 1.06-1.06h4.56a2.66 2.66 0 0 0 1.52-.48 2.72 2.72 0 0 0 .98-1.27z" fill="none" stroke="#172f4f" stroke-linecap="round" stroke-linejoin="round"/><path d="M16.71 19.16S3.49 24.54 9.05 36.87a.41.41 0 0 0 .19.2.4.4 0 0 0 .28 0 .38.38 0 0 0 .25-.07.5.5 0 0 0 .13-.25c.91-9 10.38-11.13 10.38-11.13l1.46 2.65a1.06 1.06 0 0 0 .35.35.92.92 0 0 0 .49.1.83.83 0 0 0 .46-.17.8.8 0 0 0 .31-.39l3.88-9.81a.89.89 0 0 0 .06-.39.94.94 0 0 0-.11-.37.73.73 0 0 0-.26-.29.82.82 0 0 0-.36-.15l-10.38-1.94a.92.92 0 0 0-.49 0 .88.88 0 0 0-.56.77.87.87 0 0 0 .11.48z" fill="none"/><path d="M16.71 19.16S3.49 24.54 9.05 36.87a.41.41 0 0 0 .19.2.4.4 0 0 0 .28 0 .38.38 0 0 0 .25-.07.5.5 0 0 0 .13-.25c.91-9 10.38-11.13 10.38-11.13l1.46 2.65a1.06 1.06 0 0 0 .35.35.92.92 0 0 0 .49.1.83.83 0 0 0 .46-.17.8.8 0 0 0 .31-.39l3.88-9.81a.89.89 0 0 0 .06-.39.94.94 0 0 0-.11-.37.73.73 0 0 0-.26-.29.82.82 0 0 0-.36-.15l-10.38-1.94a.92.92 0 0 0-.49 0 .88.88 0 0 0-.56.77.87.87 0 0 0 .11.48z" fill="#eff6ff" stroke="#172f4f" stroke-linecap="round" stroke-linejoin="round"/><path d="M47.29 40.32S60.51 35 55 22.62a.48.48 0 0 0-.19-.21.44.44 0 0 0-.53.08.42.42 0 0 0-.12.26c-.92 9-10.39 11.13-10.39 11.13l-1.46-2.65a1 1 0 0 0-.36-.36.87.87 0 0 0-.48-.1.9.9 0 0 0-.47.17.83.83 0 0 0-.3.39l-3.88 9.82a.82.82 0 0 0-.06.38.94.94 0 0 0 .11.37.83.83 0 0 0 .26.3 1.05 1.05 0 0 0 .36.15l10.37 1.92a.86.86 0 0 0 .5-.05.85.85 0 0 0 .55-.77.81.81 0 0 0-.11-.48z" fill="none"/><path d="M47.29 40.32S60.51 35 55 22.62a.48.48 0 0 0-.19-.21.44.44 0 0 0-.53.08.42.42 0 0 0-.12.26c-.92 9-10.39 11.12-10.39 11.12l-1.46-2.64a1 1 0 0 0-.36-.36.87.87 0 0 0-.48-.1.9.9 0 0 0-.47.17.83.83 0 0 0-.3.39l-3.88 9.82a.82.82 0 0 0-.06.38.94.94 0 0 0 .11.37.83.83 0 0 0 .26.3 1.05 1.05 0 0 0 .36.15l10.37 1.92a.86.86 0 0 0 .5-.05.85.85 0 0 0 .55-.77.81.81 0 0 0-.11-.48z" fill="#eff6ff" stroke="#172f4f" stroke-linecap="round" stroke-linejoin="round"/><path fill="none" stroke="#172f4f" stroke-linecap="round" stroke-linejoin="round" d="M21.79 52.74L42.21 52.74"/></svg>