<svg viewBox="0 0 90 96" fill="none" xmlns="http://www.w3.org/2000/svg"><g clip-path="url(#clip0_1194_16018)"><path d="M58.837 54.069c-.527-1.223-.807-2.621-.807-4.194 0-7.723 6.808-11.125 13.73-11.125h.46c2.103 0 10.517.535 11.397 9.06l-8.376.918c-.077-2.332-.574-4.779-3.404-4.779-3.633 0-3.901 3.02-3.901 5.888v.076c0 2.867.306 5.888 3.901 5.888 1.874 0 3.557-1.07 3.557-3.365h8.337l-.038.727C82.316 59.93 76.16 61 71.76 61c-5.243 0-10.45-1.952-12.633-6.277v5.607H43.869V54.07h2.883v-6.53c0-1.96-1.422-2.843-3.229-2.843-2.306 0-4.035 1.69-4.035 3.995v5.416h2.959v6.262H26.843v-6.262h2.806v-9.411h-2.806v-6.262h12.299v4.341c.23-.192.422-.422.576-.615 2.23-2.573 4.804-3.495 8.186-3.495 4.766 0 8.61 1.92 8.61 7.183v8.26-.04h2.323zM6 38.627v-6.663h19.746v6.663h-3.728V54.2h3.728v6.169H6V54.2h3.69V38.628H6zm80.552 21.9c-1.904 0-3.448-1.555-3.448-3.472 0-1.918 1.544-3.472 3.448-3.472S90 55.137 90 57.055c0 1.917-1.544 3.471-3.448 3.471z" fill="#000"/></g><defs><clipPath id="clip0_1194_16018"><path fill="#fff" transform="translate(6 31.964)" d="M0 0H84V29.036H0z"/></clipPath></defs></svg>