<svg fill="none" viewBox="0 0 106 96" xmlns="http://www.w3.org/2000/svg"><g fill="#251802"><path clip-rule="evenodd" d="M46.18 7c.587.058 1.584.35 2.287.934.763.701.939 1.81.704 2.804-.234.876-.528 1.343-1.466 1.985-.938.643-1.642.701-1.642.701v3.855l1.818 1.401-1.818 1.635v5.256s1.525-1.226 2.698-3.62c0 0 .058-.117.175-.41.118.643.06 1.986-.703 3.622-.587 1.284-1.583 2.452-2.932 3.153-2.287 1.227-4.046 1.343-5.864.993-2.17-.409-4.163-1.577-5.453-3.62-.939-1.46-1.35-3.096-1.35-4.907.06-3.562 2.815-6.599 5.982-7.767.14-.04.246-.08.346-.117.192-.072.362-.136.71-.175-.152.113-.328.226-.528.355-.11.071-.227.147-.352.23-.997.642-1.877 1.927-2.287 2.92l6.098-2.629v8.235l-4.867 2.394c.587.76 2.287 1.869 3.753 2.044 2.463.292 4.105-.642 4.105-.642v-5.373l-1.818-1.577 1.818-1.401v-3.855c-.788-.087-1.805-.37-2.563-.58a29.211 29.211 0 0 0-.662-.18c-.62-.13-2.022-.494-3.243-.813-.974-.254-1.833-.478-2.093-.53-.587-.058-1.29-.058-1.7.293-.411.35-.704 1.05-.529 1.635.099.293.28.464.439.615l.09.086s-.235 0-.587-.234c-.704-.409-1.232-1.168-1.29-2.16a3.609 3.609 0 0 1 1.524-3.154c.939-.584 1.994-.935 3.226-.76 1.078.139 2.364.545 3.684.962.904.286 1.825.577 2.707.79.821.176 1.466.234 2.053-.058.293-.175.762-.7.351-1.343-.403-.653-1.11-.745-1.786-.832-.11-.014-.218-.028-.325-.044C45.594 7 45.711 7 46.18 7zm-7.095 16.469v-8l-2.639 1.05s-.645 1.344-.527 3.33c.058 1.576.996 3.386 1.7 4.204zm30.844-8.41l-3.108 1.81-2.932 1.52v7.591l-1.114.876.176.175 1.114-.876 3.46 2.979 5.981-4.555-.117-.176-3.343 2.512-2.814-2.395v-.934l5.453-3.855zm.117 6.307l-2.814 1.986v-6.54z" fill-rule="evenodd"/><path d="M60.664 26.856c0 1.927-.703 3.855-2.58 4.73-1.7.818-3.108.701-3.87.526l.154-.045c.882-.256 1.244-.361 2.133-1.356.938-1.052 1.407-3.096 1.407-4.848v-6.54l-2.11-2.161-1.526.934v7.592l1.29.876.939-.7.117.175-3.87 2.978-2.463-2.22-.88.643-.117-.175 2.053-1.285V12.373c0-.653-.561-.859-.877-.975-.08-.03-.144-.053-.179-.076l3.929-3.212v9.694l3.87-2.861 2.521 2.92 1.173-.877.118.176-1.173.876v6.073z"/><path clip-rule="evenodd" d="M71.924 73.856l-3.167 1.81-2.873 1.519v7.592l-1.232.876.176.175 1.114-.876 3.46 2.978 5.981-4.555-.117-.175-3.343 2.511-2.755-2.453v-.934l5.453-3.855zm.058 6.307l-3.108 1.986v-6.541z" fill-rule="evenodd"/><path d="M65.61 84.718l-3.636 3.21-2.72-2.863.878-.583v-6.247l-2.193-2.044-.763.583v7.592l1.052.994-2.638 2.512-2.463-2.628.527-.699V78.3l-1.7-2.104-.645.524v7.593l1.114 1.11-2.697 2.568-2.639-2.84.82-.699v-6.308l-1.644-1.812-1.173.934-.117-.174 3.636-3.058 2.523 2.568 3.399-2.568 2.522 2.568 3.518-2.686 2.463 2.686 1.348-.993.117.174-1.465.994v7.125l1.524 1.402.877-.76.175.175z"/><path d="M39.109 86l1.053-.874.026-7.164-1.524-1.693-.939.76-.47-.115 3.73-2.92 2.521 2.839 1.173-.994.176.175-1.228.994v7.061l1.408 1.577 1.053-.874.116.175-3.461 2.98-2.404-2.687-1.114.935L39.11 86zm1.498-12.845l2.638-2.278-2.105-2.278-2.645 2.337z"/><path clip-rule="evenodd" d="M33.808 65.796c.645.059 1.583.35 2.287.935.762.7.938 1.81.703 2.803-.234.876-.527 1.343-1.466 1.986-.938.642-1.641.584-1.641.584v3.854l1.759 1.519-1.76 1.518v5.198s1.467-1.052 2.698-3.446c0 0 .059-.117.176-.409.117.643.059 1.986-.704 3.621-.586 1.285-1.583 2.453-2.932 3.154-2.287 1.226-4.046 1.343-5.864.993-2.17-.41-4.163-1.577-5.453-3.621-.938-1.46-1.349-3.096-1.349-4.906.059-3.562 2.815-6.6 5.981-7.767a4.8 4.8 0 0 0 .247-.09c.22-.084.417-.159.809-.202a9.2 9.2 0 0 1-.528.355c-.11.07-.227.146-.352.229-.997.642-1.876 1.927-2.287 2.92l6.04-2.511v8.234l-4.808 2.278c.586.759 2.287 1.868 3.753 2.044 2.462.292 4.046-.76 4.046-.76v-5.372l-1.76-1.519 1.76-1.518v-3.855c-.867-.096-1.933-.35-2.708-.534l-.459-.108c-.62-.13-2.021-.495-3.243-.814a74.1 74.1 0 0 0-2.093-.53c-.586-.058-1.29-.058-1.7.293-.41.35-.704 1.051-.528 1.635.098.294.279.464.438.615l.09.086s-.235 0-.587-.234c-.704-.409-1.231-1.168-1.29-2.16a3.608 3.608 0 0 1 1.525-3.154c.938-.584 1.994-.935 3.225-.76 1.079.14 2.364.545 3.685.962.904.286 1.825.577 2.707.79.82.176 1.466.234 2.052-.058.293-.175.762-.7.352-1.343-.404-.653-1.111-.744-1.786-.832-.11-.014-.219-.028-.325-.044.645-.059.82-.059 1.29-.059zm-7.037 16.47v-8.001l-2.463 1.05s-.645 1.344-.527 3.33c.058 1.577.996 3.387 1.7 4.205zm49.316 4.671c.41 1.752 2.11 2.161 2.521 2.044-1.172-.408-1.583-1.343-.762-1.985 1.231-.818 2.697.934 2.697.934a45.764 45.764 0 0 1 5.336-3.212v-4.73l-2.345-1.81c2.932-3.213 2.17-4.673 1.876-5.14.06.292.118 1.577-1.524 1.694-1.056.058-1.994-1.051-1.994-1.051l-2.521 1.576c-1.232.76-2.815 1.519-2.815 1.519v3.62l2.17 1.928-.273.271c-1.666 1.654-2.756 2.735-2.366 4.343zm3.342-7.767v-3.796l.352.059s.704 1.401 2.17 1.81c1.7.526 2.99-1.168 2.99-1.168-1.055 1.986-3.87 4.205-3.87 4.205zm.528 4.614c-2.17-.409-3.401 1.577-3.401 1.577.256-.98 1.822-2.394 3.243-3.676a42.78 42.78 0 0 0 1.448-1.347l1.7 1.168v4.79s-.938-2.103-2.99-2.512z" fill-rule="evenodd"/><path d="M4.452 58.169c-1.525-.175-2.17-1.051-2.17-1.81 0-.468.47-1.344 1.408-1.46.938-.117 1.876.292 2.697 1.226l3.577-3.796-.176-.175-.938 1.051c-.997-1.051-2.17-1.752-3.577-1.927V39.656l9.09 16.294s.234.175.644.175c.352 0 .235-.234.235-.234v-16.41c.762 0 1.759-.409 2.345-.993 1.76-1.752 1.056-3.68.88-3.913-.117.818-.762 1.694-1.877 1.694-1.466 0-2.345-1.051-2.345-1.051l-3.694 3.97.175.176.997-1.11c1.232 1.11 1.935 1.227 2.874 1.285v9.52L7.97 36.969c-.645-.992-1.583-1.868-3.049-1.868-1.7 0-2.932 1.46-3.108 2.686-.176 1.402 0 1.752 0 1.752s.235-1.577 1.232-1.577c.846 0 1.15.433 1.537.987l.046.065v3.854l-.025.002c-.952.059-3.143.195-3.317 2.626 0 .934.586 1.869 1.114 2.16.645.41 1.172.41 1.172.41s-.762-.41-.527-1.227c.234-.7 1.583-.817 1.642-.525v4.905c-.763 0-2.932.059-4.046 2.044-.646 1.168-.587 2.512.058 3.446.587.818 1.76 1.81 3.753 1.46z"/><path clip-rule="evenodd" d="M20.871 43.627l3.167-1.81 2.756 4.614-5.454 3.854v.934l2.698 2.453 3.342-2.511.117.175-5.98 4.555-3.226-2.978-1.114.876-.176-.175 1.114-.876v-7.592zm.235 6.483l3.049-1.986-3.05-4.555v6.54z" fill-rule="evenodd"/><path d="M32.481 56.067L29.55 53.73l-1.29.876-.117-.176 1.29-.934v-6.6c.028-1.31-.585-1.829-1.201-2.348-.646-.545-1.293-1.092-1.203-2.557.058-1.285 1.348-2.22 1.993-2.511.704-.35 1.408-.35 1.408-.35s-1.232.7-.938 1.752c.207.723.873 1.149 1.557 1.586.862.552 1.752 1.121 1.785 2.326v7.476l1.818 1.635.527-.409v-8.118l-.82-1.11 2.931-2.51 2.698 2.277-1.232 1.051v7.184l2.698 1.985.469-.292V45.38l-1.114-1.05 2.932-2.57 2.756 2.16 1.114-.934.117.175-2.463 2.103v7.008l-6.274 3.737-3.225-2.394-3.284 2.453z"/><path clip-rule="evenodd" d="M80.859 44.036l-1.056.934-3.753-3.212-2.697 1.519-3.108 1.518h.176v8.176l-1.232.818.176.175.939-.817 3.577 2.92 2.814-1.636 3.05-1.752v-7.533l1.29-.935zm-4.515 10.162l-3.05-2.628v-8.118l3.05 2.687z" fill-rule="evenodd"/><path d="M86.898 44.211l2.287-2.277s.293.292.587.409c.02.006.048.017.082.03.256.1.866.337 1.384.028.351-.175.41-.234.762-.584.058 1.752-.821 2.978-1.876 3.504-.47.233-1.994.584-3.402-.993v8.118l1.7 1.226 1.232-.934.118.175-3.753 3.037-2.874-2.511-1.055.934-.176-.175 1.29-1.343v-6.95l-.938-1.519-1.056.877-.176-.176 3.636-3.153zm13.839-2.51l-4.222 5.898 5.395 8.41 4.046-3.388-.176-.175-1.172.993-5.864-8.527.293-.409s1.407 1.11 2.932.876c1.7-.292 2.521-2.102 2.756-3.679 0 0-1.173 1.226-2.463.876a3.351 3.351 0 0 1-1.525-.876z"/><path d="M93.232 39.656c0-1.285-.763-2.044-1.466-1.986l4.398-3.095v17.637l1.407 1.227.938-.76.176.176-3.694 3.095-2.522-2.278-.996.876-.176-.175 1.993-1.46V39.656z"/><path clip-rule="evenodd" d="M53.24 37.495c.762 0 1.29.701 1.29 1.87l.117 4.671c-1.173.117-2.11.292-2.873 1.343-.938 1.285-.235 2.628.117 2.979.704.759 1.525.642 1.525.642s-1.056-.409-.587-1.285c.352-.584 1.7-.642 1.76-.35v7.884s-2.58.876-2.64 2.978c-.058 1.519.822 2.979 2.053 3.505 1.683.694 3.969.216 6.215-.253.962-.202 1.918-.402 2.816-.507 1.407-.117 1.817.059 1.993.643.352 1.226-.938 1.927-.938 1.927s2.639-.409 3.225-2.395c.293-1.05.293-2.628-1.876-3.62-1.248-.546-3.743-.085-6.076.346-2.163.4-4.187.774-4.948.296-.821-.526-.821-1.285-.587-1.81.704-1.577 3.401-1.227 5.16-.993.657.098 1.337.278 2.023.46 1.764.469 3.57.949 5.132.065.996-.584 1.172-1.576 1.23-2.57V38.08l1.291-1.11-.117-.175-1.29 1.052-2.698-2.336-3.577 2.861v-2.686h-.586v19.74s-.293-.118-.821-.234a9.083 9.083 0 0 1-.938-.176v-16.41c0-1.227-.704-2.57-2.522-2.979-1.759-.408-2.873.468-3.46 1.11-1.114 1.11-.88 2.336-.88 2.336s.294-1.577 1.467-1.577zm8.913 7.71c.762 0 1.29-.585 1.29-.585v2.336s-.469-.526-1.29-.526c-.82 0-1.173.584-1.173.584V44.62s.352.584 1.173.584zm-.293-7.242l1.466 1.518v4.789s-.176.642-.997.642-1.349-.642-1.349-.642v-5.665zm.997 17.17c-.821.642-1.877.35-1.877.35v-8.06s.528-.642 1.349-.642c.762 0 .997.642.997.642v6.074s.41.934-.47 1.635z" fill-rule="evenodd"/></g></svg>