<svg fill="none" viewBox="0 0 135 96" xmlns="http://www.w3.org/2000/svg"><clipPath id="a"><path d="M0 0h134.486v41H0z" transform="translate(0 24)"/></clipPath><g clip-path="url(#a)"><path clip-rule="evenodd" d="M61.636 24.68l.09 3.63-.865.048c-.069-2.226-.536-2.53-3.978-2.53h-.73V38.56c0 1.757.456 2.226 2.212 2.273l.045.609c-1.664-.024-2.929-.024-3.727-.024-.843 0-2.165 0-3.875.024l.046-.61c1.766-.046 2.222-.515 2.222-2.272V25.828h-.866c-3.533 0-3.989.304-4.046 2.53l-.855-.047.092-3.631 7.237.046zm1.424 16.2c1.596 0 1.812-.304 1.824-2.507V27.75c-.012-2.203-.228-2.507-1.824-2.507l-.046-.563c2.166-.117 2.667-.187 4.628-.538v7.24c1.253-1.348 2.28-1.875 3.692-1.875 2.325 0 3.613 1.405 3.613 4.076v4.803c.034 2.203.24 2.507 1.835 2.507l.046.562c-1.368-.047-2.428-.093-3.112-.093-.683 0-1.652.047-2.963.093l.057-.562c1.254-.187 1.368-.41 1.402-2.507v-3.514c0-2.964-.524-3.936-2.097-3.936-.832 0-1.744.527-2.12 1.359-.148.28-.24.586-.342.878l-.011.27v4.943c0 2.097.136 2.32 1.39 2.507l.057.562c-1.333-.047-2.313-.093-2.974-.093-.696 0-1.744.047-3.1.093l.045-.562v-.012zm17.597-6.888a46.015 46.015 0 0 0 5.038-.328c-.297-2.272-1.163-3.362-2.622-3.362-1.436 0-2.176 1.125-2.416 3.69zm7.556 5.155c-1.481 1.804-2.928 2.553-4.786 2.553-3.305 0-5.55-2.39-5.55-5.88 0-3.772 2.302-6.326 5.64-6.326 1.79 0 3.078.644 3.967 2.027.593.995.752 1.675.775 3.362h-7.522c.091 3.514 1.402 5.529 3.579 5.529 1.276 0 2.37-.586 3.544-1.921zM.422 63.114c1.937-.047 2.427-.562 2.427-2.518V48.389c0-1.944-.501-2.46-2.427-2.518l-.08-.633 4.046.059 6.417-.082 1.686.023.103 3.772-1.06.082c-.183-2.366-.627-2.624-4.388-2.624h-.581l-.262.023v7.03l1.14.023c.398.035.797.046 1.207.058 2.075 0 2.542-.445 2.565-2.378h.912c-.092 1.546-.092 2.343-.092 3.128 0 .632 0 1.51.034 2.67h-.854c-.103-1.862-.524-2.225-2.508-2.248l-1.436-.036-1.003.059v5.435c0 2.226.137 2.32 2.36 2.32 2.94 0 3.806-.656 4.068-3.128l1.06.059-.604 4.31-2.04.036-6.428-.059-4.342.023.08-.679zm26.68-1.171c-1.504 1.546-2.7 2.143-4.445 2.143-3.487 0-5.72-2.682-5.72-6.712 0-4.217 2.358-6.853 6.176-6.853 1.003 0 2.018.188 3.579.598l.046 3.08-1.197.07c-.433-2.283-.912-2.834-2.428-2.834-1.983 0-3.02 1.698-3.02 5.037 0 3.924 1.242 6.127 3.488 6.127 1.162 0 2.097-.492 3.134-1.582l.387.937zm6.064-4.417c.262 3.667 1.504 5.67 3.533 5.67 1.903 0 3.043-1.944 3.043-5.178 0-3.842-1.562-6.513-3.727-6.513-1.938 0-2.906 1.605-2.906 4.85 0 .387 0 .785.057 1.171zm-3.237.281v-.386c0-4.393 2.393-6.9 6.485-6.9 3.784 0 6.485 2.765 6.485 6.794 0 4.042-2.622 6.771-6.565 6.771-3.761 0-6.269-2.495-6.405-6.279zm16.081 5.366c1.732 0 1.995-.34 1.995-2.777V54.4c0-2.367-.263-2.695-1.995-2.73l-.045-.597c2.302-.13 2.837-.211 4.832-.633l.137 2.308c1.504-1.628 2.666-2.226 4.24-2.226 2.564 0 4.011 1.64 4.011 4.534v5.341c-.023.2-.023.41-.023.621 0 1.664.456 2.156 2.052 2.156l.057.62c-1.527-.046-2.69-.105-3.453-.105-.741 0-1.847.059-3.26.117l.045-.632c1.368-.211 1.516-.469 1.516-2.777l.035-1.593v-2.32c0-3.28-.616-4.322-2.28-4.322-1.037 0-1.903.527-2.439 1.465-.205.386-.387 1.007-.387 1.276v5.494c.022 2.308.16 2.578 1.55 2.777l.08.62c-1.482-.046-2.588-.105-3.329-.105-.763 0-1.891.059-3.384.117l.045-.632zm20.766-5.647c.273 3.667 1.504 5.67 3.499 5.67 1.903 0 3.042-1.944 3.042-5.178 0-3.842-1.56-6.513-3.715-6.513-1.892 0-2.872 1.605-2.872 4.85 0 .387 0 .785.046 1.171zm-3.271.281v-.386c0-4.393 2.404-6.9 6.485-6.9 3.829 0 6.519 2.765 6.519 6.794 0 4.042-2.622 6.771-6.6 6.771-3.738 0-6.268-2.495-6.404-6.279zm15.955 5.366c1.779 0 2.052-.34 2.052-2.777V54.4c0-2.367-.273-2.695-2.052-2.73l-.045-.597a24.43 24.43 0 0 0 4.878-.633l.114 2.308c1.481-1.593 2.655-2.226 4.217-2.226 1.79 0 2.85.727 3.601 2.425 1.607-1.78 2.793-2.425 4.411-2.425 2.496 0 3.886 1.664 3.886 4.534v5.341l-.022.621c0 1.664.478 2.156 2.051 2.156l.068.62c-1.538-.046-2.7-.105-3.442-.105-.718 0-1.8.059-3.259.117l.057-.632c1.402-.211 1.527-.469 1.561-2.777v-3.912c0-3.222-.57-4.323-2.222-4.323-.98 0-1.983.586-2.405 1.465-.137.316-.262.62-.342.983l-.057.293v5.494c0 2.308.16 2.578 1.562 2.777l.057.62c-1.402-.046-2.44-.105-3.135-.105-.683 0-1.71.059-3.088.117l.057-.632c1.402-.211 1.527-.469 1.55-2.777v-3.912c0-3.222-.57-4.323-2.223-4.323a2.68 2.68 0 0 0-1.391.396 2.778 2.778 0 0 0-1.002 1.069c-.217.41-.388 1.007-.388 1.276v5.494c.023 2.308.149 2.578 1.55 2.777l.046.62c-1.447-.046-2.507-.105-3.26-.105-.763 0-1.903.059-3.43.117l.057-.632h-.011zm27.137-17.068a1.699 1.699 0 0 1 .132-.664c.088-.21.218-.399.381-.554.333-.33.78-.511 1.242-.504.98 0 1.767.796 1.767 1.722 0 .984-.764 1.769-1.767 1.769s-1.755-.75-1.755-1.757zm3.385 4.334v8.364l.034 1.593c0 2.437.228 2.777 2.029 2.777l.057.62c-1.641-.046-2.827-.105-3.647-.105-.798 0-1.949.059-3.545.117l.046-.632c1.744 0 1.994-.34 1.994-2.777l.023-1.593v-2.73l-.023-1.674c0-2.367-.25-2.695-1.994-2.73l-.046-.597c2.394-.153 2.929-.235 5.072-.633zm5.3 12.886l-.103-2.648 1.345-.046c.604 1.991 1.003 2.39 2.405 2.39 1.219 0 2.017-.633 2.017-1.559 0-.89-.57-1.534-2.222-2.635l-1.744-1.195a4.21 4.21 0 0 1-1.459-1.851 3.657 3.657 0 0 1-.228-1.406c0-2.32 1.63-3.854 4.103-3.854.935 0 1.459.082 3.556.574l.057 2.577-1.345.059c-.296-1.699-.832-2.296-2.074-2.296-1.186 0-2.029.68-2.029 1.593 0 .914.422 1.453 1.789 2.308 1.254.82 2.189 1.534 2.85 2.108.729.703 1.151 1.582 1.151 2.578 0 2.284-1.961 4.064-4.468 4.064-.98 0-1.903-.21-3.601-.761zm10.872-12.042c2.086-.164 2.873-1.043 3.465-3.749h1.197v3.514h3.328l-.376 1.43h-2.964v6.349c0 3.163.434 3.9 2.223 3.9.433 0 .82-.046 1.459-.234v.762c-.901.492-2.143.773-3.408.773a2.937 2.937 0 0 1-1.57-.413 3.042 3.042 0 0 1-1.131-1.192c-.399-.82-.536-1.617-.536-3.339v-6.618h-1.687V51.27v.012z" fill="#d13223" fill-rule="evenodd"/></g></svg>